HIERARCHY
ROOT Hips
{
    OFFSET 0.000000 0.000000 0.000000
    CHANNELS 6 Xposition Yposition Zposition Zrotation Xrotation Yrotation
    JOINT Spine
    {
        OFFSET -0.000000 14.517291 0.000000
        CHANNELS 3 Zrotation Xrotation Yrotation
        JOINT Spine1
        {
            OFFSET -0.000000 37.558300 0.000000
            CHANNELS 3 Zrotation Xrotation Yrotation
            JOINT Neck
            {
                OFFSET -0.000000 37.404057 3.400369
                CHANNELS 3 Zrotation Xrotation Yrotation
                JOINT Head
                {
                    OFFSET -0.000000 24.785618 -3.540803
                    CHANNELS 3 Zrotation Xrotation Yrotation
                    End Site
                    {
                        OFFSET -0.000000 35.408028 0.000000
                    }
                }
            }
            JOINT LeftShoulder
            {
                OFFSET 6.992933 33.973492 -0.192664
                CHANNELS 3 Zrotation Xrotation Yrotation
                JOINT LeftArm
                {
                    OFFSET 21.527611 0.000000 0.000000
                    CHANNELS 3 Zrotation Xrotation Yrotation
                    JOINT LeftForeArm
                    {
                        OFFSET 56.353916 0.000000 0.000000
                        CHANNELS 3 Zrotation Xrotation Yrotation
                        JOINT LeftHand
                        {
                            OFFSET 47.774071 0.000000 0.000000
                            CHANNELS 3 Zrotation Xrotation Yrotation
                            End Site
                            {
                                OFFSET 26.556021 0.000000 0.000000
                            }
                        }
                    }
                }
            }
            JOINT RightShoulder
            {
                OFFSET -7.065357 33.973492 -0.192664
                CHANNELS 3 Zrotation Xrotation Yrotation
                JOINT RightArm
                {
                    OFFSET -21.527611 0.000000 0.000000
                    CHANNELS 3 Zrotation Xrotation Yrotation
                    JOINT RightForeArm
                    {
                        OFFSET -56.353916 0.000000 0.000000
                        CHANNELS 3 Zrotation Xrotation Yrotation
                        JOINT RightHand
                        {
                            OFFSET -47.774071 0.000000 0.000000
                            CHANNELS 3 Zrotation Xrotation Yrotation
                            End Site
                            {
                                OFFSET -26.556021 0.000000 0.000000
                            }
                        }
                    }
                }
            }
        }
    }
    JOINT LeftUpLeg
    {
        OFFSET 17.704014 0.000000 0.000000
        CHANNELS 3 Zrotation Xrotation Yrotation
        JOINT LeftLeg
        {
            OFFSET -0.000000 -81.181816 0.000000
            CHANNELS 3 Zrotation Xrotation Yrotation
            JOINT LeftFoot
            {
                OFFSET -0.000000 -62.821102 0.000000
                CHANNELS 3 Zrotation Xrotation Yrotation
                JOINT LeftToeBase
                {
                    OFFSET -0.000000 -11.507608 26.556021
                    CHANNELS 3 Zrotation Xrotation Yrotation
                    End Site
                    {
                        OFFSET -0.000000 0.000000 7.081605
                    }
                }
            }
        }
    }
    JOINT RightUpLeg
    {
        OFFSET -17.704014 0.000000 0.000000
        CHANNELS 3 Zrotation Xrotation Yrotation
        JOINT RightLeg
        {
            OFFSET -0.000000 -81.181816 0.000000
            CHANNELS 3 Zrotation Xrotation Yrotation
            JOINT RightFoot
            {
                OFFSET -0.000000 -62.821102 0.000000
                CHANNELS 3 Zrotation Xrotation Yrotation
                JOINT RightToeBase
                {
                    OFFSET -0.000000 -11.507608 26.556021
                    CHANNELS 3 Zrotation Xrotation Yrotation
                    End Site
                    {
                        OFFSET -0.000000 0.000000 7.081605
                    }
                }
            }
        }
    }
}
MOTION
Frames:    5
Frame Time:    0.008333
0.622836    164.036407    -101.847076    -4.661627    -3.695292    41.981079    1.016147    -2.783932    -2.054114    -4.992546    -2.750113    -0.815517    12.607646    -7.416643    -4.786600    4.616068    7.886184    -7.355609    10.109547    4.092644    -22.817204    -25.461975    20.067326    -68.627556    -16.777294    -2.893486    -82.828560    15.046274    -18.271635    -5.334920    -14.193772    -6.929317    -2.752113    23.055439    -25.228546    66.026886    -5.875188    -7.696716    43.983562    -11.065477    -8.268175    29.782921    11.384557    1.097542    -7.389732    -9.020502    11.180867    -18.762354    3.723624    -13.257926    43.596951    0.000000    0.000000    0.000000    -11.235908    -15.070409    -15.991975    4.242909    4.904191    -19.196491    13.270284    28.670546    -19.326929    0.000000    0.000000    0.000000    
0.616036    164.017136    -101.844856    -4.634655    -3.693427    41.982025    0.975546    -2.778292    -2.061839    -4.967916    -2.712826    -0.815584    12.649100    -7.439723    -4.778338    4.566365    7.907842    -7.363119    10.118948    4.073279    -22.828968    -25.475710    20.051971    -68.599510    -16.772989    -2.886021    -82.866562    14.997498    -18.269835    -5.348300    -14.186587    -6.925900    -2.748059    23.067656    -25.240601    66.036392    -5.879754    -7.708748    43.989471    -11.050611    -8.271954    29.761957    11.373293    1.085127    -7.458496    -9.052595    11.235902    -18.735901    3.747839    -13.297865    43.634686    0.000000    0.000000    0.000000    -11.267691    -15.105852    -15.862257    4.204823    4.871214    -19.274021    13.383985    28.691210    -19.535814    0.000000    0.000000    0.000000    
0.611773    163.993866    -101.830994    -4.594615    -3.700293    41.984943    0.928794    -2.759742    -2.070499    -4.933900    -2.681420    -0.815809    12.654419    -7.431574    -4.763415    4.552729    7.891962    -7.348164    10.119112    4.069242    -22.839245    -25.460543    20.041088    -68.580528    -16.751360    -2.908010    -82.918076    14.966901    -18.282932    -5.343854    -14.194855    -6.913962    -2.744142    23.057833    -25.242001    66.041046    -5.887663    -7.731222    43.983509    -11.073142    -8.297868    29.764658    11.363359    1.095435    -7.526488    -9.087375    11.284173    -18.737608    3.796655    -13.321019    43.676105    0.000000    0.000000    0.000000    -11.314316    -15.115732    -15.683647    4.206128    4.839337    -19.439772    13.501799    28.668251    -19.736465    0.000000    0.000000    0.000000    
0.602620    163.960526    -101.811409    -4.555555    -3.693722    41.994053    0.868258    -2.750961    -2.081476    -4.908688    -2.652759    -0.817097    12.691261    -7.416171    -4.752475    4.515752    7.875436    -7.345076    10.141191    4.078411    -22.843771    -25.432028    20.028893    -68.585220    -16.698795    -2.952125    -82.959030    14.894034    -18.288404    -5.360176    -14.178316    -6.896249    -2.739303    23.042881    -25.261200    66.046509    -5.882114    -7.747368    43.980743    -11.025311    -8.302670    29.754362    11.348904    1.086860    -7.575798    -9.133410    11.347784    -18.743660    3.850636    -13.363914    43.723263    0.000000    0.000000    0.000000    -11.377231    -15.145608    -15.522734    4.226101    4.866496    -19.587276    13.672562    28.555943    -19.965410    0.000000    0.000000    0.000000    
0.600381    163.922134    -101.781754    -4.505162    -3.699752    42.011749    0.817626    -2.730622    -2.089764    -4.892606    -2.617698    -0.817486    12.704908    -7.420761    -4.746047    4.506069    7.886771    -7.343037    10.158226    4.071858    -22.846807    -25.381098    20.040062    -68.598282    -16.641603    -3.016793    -83.016228    14.838121    -18.314127    -5.380275    -14.177018    -6.887631    -2.751316    23.057812    -25.287464    66.069023    -5.856491    -7.737099    43.972858    -11.025349    -8.298516    29.709185    11.333385    1.093676    -7.629391    -9.174940    11.427848    -18.729765    3.906320    -13.429584    43.746384    0.000000    0.000000    0.000000    -11.447259    -15.150041    -15.434153    4.248825    4.914043    -19.659639    13.886422    28.396191    -20.210871    0.000000    0.000000    0.000000    
